HIERARCHY
ROOT root
{
	OFFSET	0	13.1	24.9
	CHANNELS 6  Xposition Yposition Zposition Xrotation Yrotation Zrotation
	JOINT spine_1
	{
		OFFSET	0	9.99999	0
		CHANNELS 3  Xrotation Yrotation Zrotation
		JOINT spine_2
		{
			OFFSET	0	112	-10
			CHANNELS 3  Xrotation Yrotation Zrotation
			JOINT spine_3
			{
				OFFSET	0	206.5	19.3
				CHANNELS 3  Xrotation Yrotation Zrotation
				JOINT spine_4
				{
					OFFSET	0	110.4	14.6
					CHANNELS 3  Xrotation Yrotation Zrotation
					JOINT neck_1
					{
						OFFSET	0	71.8	-50.3
						CHANNELS 3  Xrotation Yrotation Zrotation
						JOINT neck_2
						{
							OFFSET	0	86.2	-25.8
							CHANNELS 3  Xrotation Yrotation Zrotation
							JOINT head_ee
							{
								OFFSET	0	179.8	-8.7
								CHANNELS 3  Xrotation Yrotation Zrotation
								End Site
								{
									OFFSET	1	0	0
								}
							}
						}
					}
					JOINT left_clavicle
					{
						OFFSET	-43.2	22.4	-70.8
						CHANNELS 3  Xrotation Yrotation Zrotation
						JOINT left_shoulder
						{
							OFFSET	-93.9	-5.79999	48.7
							CHANNELS 3  Xrotation Yrotation Zrotation
							JOINT left_elbow
							{
								OFFSET	-291.4	-30.8	15.2
								CHANNELS 3  Xrotation Yrotation Zrotation
								JOINT left_lowarm_twist
								{
									OFFSET	-110.7	-3.89999	13.6
									CHANNELS 3  Xrotation Yrotation Zrotation
									JOINT left_hand
									{
										OFFSET	-110.7	-3.89999	13.6
										CHANNELS 3  Xrotation Yrotation Zrotation
										JOINT left_ee
										{
											OFFSET	-80.8	-5.10001	12.1
											CHANNELS 3  Xrotation Yrotation Zrotation
											End Site
											{
												OFFSET	1	0	0
											}
										}
									}
								}
							}
						}
					}
					JOINT right_clavicle
					{
						OFFSET	43.2	22.4	-70.8
						CHANNELS 3  Xrotation Yrotation Zrotation
						JOINT right_shoulder
						{
							OFFSET	93.9	-5.79999	48.7
							CHANNELS 3  Xrotation Yrotation Zrotation
							JOINT right_elbow
							{
								OFFSET	291.4	-30.8	15.2
								CHANNELS 3  Xrotation Yrotation Zrotation
								JOINT right_lowarm_twist
								{
									OFFSET	110.7	-3.89999	13.6
									CHANNELS 3  Xrotation Yrotation Zrotation
									JOINT right_hand
									{
										OFFSET	110.7	-3.89999	13.6
										CHANNELS 3  Xrotation Yrotation Zrotation
										JOINT right_ee
										{
											OFFSET	80.8	-5.10001	12.1
											CHANNELS 3  Xrotation Yrotation Zrotation
											End Site
											{
												OFFSET	1	0	0
											}
										}
									}
								}
							}
						}
					}
				}
			}
		}
	}
	JOINT left_hip
	{
		OFFSET	-82.8	-127.5	0.300001
		CHANNELS 3  Xrotation Yrotation Zrotation
		JOINT left_knee
		{
			OFFSET	-28.2	-396.7	2.2
			CHANNELS 3  Xrotation Yrotation Zrotation
			JOINT left_ankle
			{
				OFFSET	-11.7	-411.3	35.4
				CHANNELS 3  Xrotation Yrotation Zrotation
				JOINT left_toes
				{
					OFFSET	0	-60	-88.6
					CHANNELS 3  Xrotation Yrotation Zrotation
					JOINT left_foot_ee
					{
						OFFSET	-22.5	-16.5	-42.2
						CHANNELS 3  Xrotation Yrotation Zrotation
						End Site
						{
							OFFSET	1	0	0
						}
					}
				}
			}
		}
	}
	JOINT right_hip
	{
		OFFSET	82.8	-127.5	0.300001
		CHANNELS 3  Xrotation Yrotation Zrotation
		JOINT right_knee
		{
			OFFSET	28.2	-396.7	2.2
			CHANNELS 3  Xrotation Yrotation Zrotation
			JOINT right_ankle
			{
				OFFSET	11.7	-411.3	35.4
				CHANNELS 3  Xrotation Yrotation Zrotation
				JOINT right_toes
				{
					OFFSET	0	-60	-88.6
					CHANNELS 3  Xrotation Yrotation Zrotation
					JOINT right_foot_ee
					{
						OFFSET	22.5	-16.5	-42.2
						CHANNELS 3  Xrotation Yrotation Zrotation
						End Site
						{
							OFFSET	1	0	0
						}
					}
				}
			}
		}
	}
}
MOTION
Frames: 6
Frame Time: 0.02
2042.21 658.479 -1514.85 -12.9797 79.1344 16.944 2.68124 -0.203098 -0.0403029 2.68122 -0.200121 -0.0531449 2.68141 -0.188678 -0.0852848 2.68146 -0.199779 -0.0544161 -7.19042 13.189 2.08693 -7.19831 23.0621 4.81786 -0.0 0.0 -0.0 -0.444605 22.7655 2.02099 -19.5974 -1.74182 76.7308 1.0384 -27.2203 0.251416 -54.4423 -4.60079 4.89483 -1.26691 16.5879 -1.0022 -0.0 0.0 -0.0 10.6037 11.6328 -21.1384 -1.53028 11.456 -74.1692 1.36137 33.9933 -0.416144 -46.4387 3.66045 -4.4838 -6.94271 -29.2523 27.0312 0.0 0.0 0.0 25.3581 5.33116 -15.0258 -0.914724 0.0365824 0.135608 -6.57284 -13.9899 1.05606 -27.0029 0.0 0.0 -0.0 0.0 -0.0 -11.1946 4.43605 -4.7603 -12.9659 -0.313119 -1.96093 34.6844 -7.48222 4.37 -2.40345 0.0 0.0 0.0 0.0 0.0 
2017.97 663.624 -1508.89 -12.2262 77.5444 16.1548 2.78709 -0.107552 -0.101105 2.78709 -0.100901 -0.107744 2.78728 -0.0820657 -0.122699 2.78727 -0.100414 -0.108198 -4.64193 13.9473 1.85049 -4.49345 24.243 4.22628 -0.0 0.0 -0.0 -1.04615 22.5431 1.15467 -17.2099 -1.38529 77.6896 1.02296 -26.8727 0.244396 -53.5977 -4.49899 4.85771 -1.08688 15.5955 -0.339029 -0.0 0.0 -0.0 10.367 9.06947 -20.6447 -4.28424 11.8437 -74.3338 1.38035 34.3619 -0.426806 -44.9002 3.48673 -4.38997 -6.80926 -29.047 26.3964 0.0 0.0 0.0 23.9277 6.55545 -14.7555 -3.02918 0.112815 0.451139 6.27272 -11.2739 -0.956683 -23.732 0.0 0.0 -0.0 0.0 -0.0 -10.47 4.69529 -4.37906 -15.9581 -0.32187 -2.41989 34.1348 -10.1495 4.32676 -3.74578 0.0 0.0 0.0 0.0 0.0 
2001.86 664.742 -1505.35 -11.2222 77.4434 14.9272 2.63026 -0.17924 -0.00248151 2.63024 -0.178719 -0.013882 2.63029 -0.173975 -0.0431959 2.63033 -0.178613 -0.0151776 -5.64509 13.1966 2.51979 -5.56649 22.5213 4.96124 -0.0 0.0 -0.0 -0.418364 21.2779 1.87548 -15.1397 -1.89096 76.5499 1.10965 -28.7961 0.284877 -53.3472 -4.4689 4.84641 -0.939057 15.2878 0.438193 -0.0 0.0 -0.0 10.31 8.8519 -20.5207 -6.17438 10.8694 -74.0798 1.323 33.2382 -0.394898 -45.317 3.53354 -4.41585 -6.76702 -29.333 25.8669 0.0 0.0 0.0 22.7165 7.46293 -14.1777 -2.67382 0.100819 0.397922 8.1519 -12.57 -1.24525 -24.6317 0.0 0.0 -0.0 0.0 -0.0 -10.0314 4.75143 -3.69107 -18.4452 -0.310902 -2.80129 33.6116 -11.8405 4.28581 -3.6774 0.0 0.0 0.0 0.0 0.0 
1980.64 673.17 -1497.69 -10.2127 77.3512 13.8465 2.70681 -0.224263 -0.0991694 2.70679 -0.217498 -0.113239 2.70723 -0.196018 -0.147328 2.70727 -0.216826 -0.114521 -4.9551 13.5548 2.43868 -4.83504 23.1299 4.81749 -0.0 0.0 -0.0 -0.0721725 21.4566 2.39103 -13.8503 -0.84717 76.4093 1.14048 -29.4638 0.299888 -53.0464 -4.43283 4.83267 -0.836819 14.7867 0.854234 -0.0 0.0 -0.0 9.6062 7.60549 -18.9968 -8.58074 11.3997 -73.9165 1.25321 31.8307 -0.357361 -44.7432 3.46913 -4.38013 -6.69764 -29.1729 25.5899 0.0 0.0 0.0 20.985 8.44942 -13.3411 -2.14302 0.0822861 0.318568 10.3326 -12.8135 -1.56785 -24.9716 0.0 0.0 -0.0 0.0 -0.0 -9.43599 5.03733 -2.84179 -20.9388 -0.283298 -3.18288 32.0444 -13.9295 4.14289 -4.8682 0.0 0.0 0.0 0.0 0.0 
1952.47 675.515 -1492.06 -4.27267 76.9425 7.84094 2.48778 -0.124466 -0.206548 2.4878 -0.11107 -0.214049 2.48822 -0.0736406 -0.229631 2.48816 -0.108982 -0.215119 -5.21963 13.7539 3.39326 -5.10739 22.8327 5.86619 -0.0 0.0 -0.0 -0.12025 21.0414 2.27503 -12.6847 -2.52304 76.1429 1.08402 -28.2347 0.272644 -52.8621 -4.41077 4.82416 -0.724835 14.5116 1.43169 -0.0 0.0 -0.0 9.35689 6.12109 -18.4622 -10.9253 10.2734 -72.8051 1.1919 30.5578 -0.325606 -45.2563 3.5267 -4.4121 -6.89201 -29.3507 26.6216 0.0 0.0 0.0 16.8081 9.61265 -12.6682 -4.05793 0.145678 0.6056 16.0638 -14.1129 -2.39876 -21.3655 0.0 0.0 -0.0 0.0 -0.0 -8.20722 4.07086 -2.16087 -27.9709 -0.116422 -4.24845 38.0096 -15.5817 4.75841 -5.44302 0.0 0.0 0.0 0.0 0.0 
1932.6 674.968 -1489.14 -0.336443 76.0715 3.80622 2.37801 0.0338882 -0.25718 2.37804 0.0501845 -0.254502 2.37781 0.0925808 -0.24232 2.37773 0.0531491 -0.2539 -6.00657 13.8707 4.67395 -5.91579 22.2528 7.31056 -0.0 0.0 -0.0 -0.135711 21.502 2.30563 -11.7254 -3.29138 75.7311 1.10306 -28.6525 0.281713 -52.7551 -4.39797 4.81918 -0.641786 14.2112 1.82112 -0.0 0.0 -0.0 9.26637 4.47321 -18.258 -12.6709 9.82224 -72.286 1.14339 29.5262 -0.301317 -45.6777 3.57421 -4.43797 -6.94512 -29.3664 26.9365 0.0 0.0 0.0 14.4453 10.3402 -12.3327 -4.60435 0.162002 0.687871 20.5204 -14.6911 -3.00871 -19.1021 0.0 0.0 -0.0 0.0 -0.0 -7.8483 4.13851 -1.5116 -31.2495 0.00581633 -4.7367 41.1164 -17.485 5.07542 -5.97219 0.0 0.0 0.0 0.0 0.0 
